<?xml version="1.0" encoding="UTF-8"?><svg id="b" xmlns="http://www.w3.org/2000/svg" width="469.91" height="519.64" viewBox="0 0 469.91 519.64"><g id="c"><path d="M139.12,296.18c-7.24-.39-16.7-.13-16.98,9.24-.18,5.93,4.33,10.52,8.93,13.71,19.08,13.22,47.82,6.29,67.7-1.08,3.51-1.3,6.9-2.78,10.2-4.38-9.54-3.11-19.07-6.28-28.7-9.16-13.33-3.99-27.19-7.57-41.15-8.33Z" fill="#64644b"/><path d="M262.76,152.31c6.1-3.78.72-12.99-1.55-17.1-2.93-4.57-12.19-14.73-18.02-10.14-4.77,3.75-3.18,12.39-.8,16.99,2.93,5.65,13.38,14.58,20.36,10.25Z" fill="#64644b"/><path d="M415.54,71.72C329.93,24.42,245.57-12.33,141.5,3.9,25.43,22-21.22,215.69,8.93,289.82c46.63,114.65,233.82,291.81,324.97,208.07,91.14-83.74,205.63-357.67,81.63-426.17ZM242.89,117.39c14.59-3.51,28.54-.14,36.86,12.86,3.64,6.57,6.22,12.39,1.27,19.03-4.19,5.62-11.13,8.56-17.77,10.12-13.98,3.3-32.11,1.89-39.4-12.37-7.72-15.11,5.42-26.36,19.04-29.64ZM355.52,330.14c-15.08,6.49-34.46,6.25-50.67,4.77-19.65-1.79-39.2-5.74-58.37-10.28-7.94-1.88-15.75-4.12-23.52-6.52-10.72,5.39-22.07,9.59-33.71,12.8-22.37,6.16-50.25,10.53-72.05.01-8.25-3.98-17.84-11.44-17.15-21.63.68-10.03,11.23-16.35,19.64-19.64,25.31-9.89,55.26-1.76,80.07,5.82,8.69,2.65,17.29,5.43,25.89,8.17,11.67-8.45,21.68-19.03,30.17-31.29,12.3-17.77,26.32-40.61,30.46-62.05,2.2-11.39-1.52-31.87-18.18-23.77-10.28,5-18.78,15.88-24.05,25.73-2.46,4.6-22.32,11.64-21.65,3.23.83-10.47-.83-37.48-18.04-33.32-10.48,2.53-10.41,23.64-10,31.96,1.25,25.34,13.71,47.85,31.63,65.29,4.79,4.66-15.58,12.69-20.37,8.03-14.38-13.99-25.72-31.16-30.58-50.8-3.84-15.52-4.97-36.12,3.97-50.2,8.59-13.54,27.89-19.62,43.11-15.58,11.67,3.1,17.64,10.36,20.34,19.47,12.31-10.75,27.66-17.98,43.71-16.84,34.15,2.41,20.98,40.87,11.44,60.18-10.84,21.94-23.04,43.62-40.81,60.75-5.25,5.07-10.9,9.59-16.84,13.66,12.59,3.83,25.28,7.35,38.31,9.98,19.61,3.95,39.22,7.49,59.24,6.08,8.65-.61,14.13-3.13,10.03-13.04-2.75-6.63-9.2-10.44-15.77-12.44-15.75-4.79-33.91-1.94-48.95,3.58-2.65.97-11.91,3.86-14.25.43-2.47-3.62,3.31-6.57,6.12-7.6,23.5-8.62,53.8-14.62,78.03-4.84,20.21,8.15,24.29,30.61,2.78,39.87Z" fill="#64644b"/></g></svg>