<?xml version="1.0" encoding="UTF-8"?><svg id="b" xmlns="http://www.w3.org/2000/svg" width="473.18" height="70.78" viewBox="0 0 473.18 70.78"><g id="c"><path d="M32.98,6.34c4.9,0,8.5.85,10.8,2.56,2.3,1.7,3.46,3.95,3.46,6.73,0,2.5-.75,4.74-2.23,6.73-1.49,1.99-3.47,3.66-5.94,5-2.47,1.34-5.17,2.35-8.1,3.02,4.75.53,8.15,1.86,10.19,4,2.04,2.14,3.06,4.64,3.06,7.52,0,2.59-.61,4.84-1.84,6.73-1.22,1.9-2.88,3.48-4.97,4.75s-4.45,2.23-7.09,2.88c-2.64.65-5.4.97-8.28.97-1.73,0-3.56-.04-5.51-.11-1.94-.07-4.26-.11-6.95-.11-1.15,0-2.33.01-3.53.04-1.2.02-2.33.05-3.38.07-1.06.03-1.94.06-2.66.11l.29-1.44c1.63-.09,2.9-.29,3.82-.58.91-.29,1.63-.86,2.16-1.73.53-.86,1.01-2.16,1.44-3.89L17.21,13.9c.33-1.44.53-2.6.58-3.49.05-.89-.28-1.56-.97-2.02-.7-.46-1.98-.68-3.85-.68l.36-1.44c.72.05,1.6.08,2.63.11,1.03.03,2.14.05,3.31.07,1.18.02,2.32.04,3.42.04,1.87,0,3.62-.02,5.26-.07,1.63-.05,3.31-.07,5.04-.07ZM19.37,31.39l.29-1.22h5.47c2.83,0,5.27-.68,7.31-2.05,2.04-1.37,3.6-3.17,4.68-5.4,1.08-2.23,1.62-4.59,1.62-7.09s-.54-4.56-1.62-5.9-2.89-2.02-5.44-2.02c-1.87,0-3.2.32-4,.97-.79.65-1.45,2.03-1.98,4.14l-9.72,36.79c-.34,1.3-.53,2.4-.58,3.31-.05.91.22,1.58.79,2.02.58.43,1.63.65,3.17.65,3.79,0,6.86-.61,9.22-1.84,2.35-1.22,4.08-2.95,5.18-5.18,1.1-2.23,1.66-4.84,1.66-7.81,0-1.92-.32-3.58-.97-4.97-.65-1.39-1.68-2.47-3.1-3.24-1.42-.77-3.28-1.15-5.58-1.15h-6.41Z"/><path d="M58.82,57.24h-7.56l8.64-30.96c.43-1.54.58-2.62.43-3.24-.14-.62-.6-.94-1.37-.94-.96,0-1.85.5-2.66,1.51-.82,1.01-1.68,2.76-2.59,5.26l-1.08,3.02h-1.37l1.8-5.33c.72-1.97,1.58-3.48,2.59-4.54,1.01-1.06,2.08-1.8,3.2-2.23,1.13-.43,2.24-.65,3.35-.65,1.49,0,2.57.31,3.24.94.67.62,1.08,1.44,1.22,2.45s.13,2.1-.04,3.28c-.17,1.18-.4,2.32-.68,3.42l-7.13,28.01ZM77.26,20.88c-1.06,0-2.16.44-3.31,1.33-1.15.89-2.33,2.22-3.53,4-1.2,1.78-2.41,4.01-3.64,6.7-1.22,2.69-2.45,5.82-3.67,9.4-1.22,3.58-2.44,7.62-3.64,12.13l1.73-9.36c1.54-4.9,2.98-9,4.32-12.31,1.34-3.31,2.68-5.96,4-7.96,1.32-1.99,2.69-3.43,4.1-4.32,1.42-.89,2.94-1.33,4.57-1.33,1.54,0,2.72.44,3.56,1.33.84.89,1.26,2,1.26,3.35,0,1.1-.26,2.1-.79,2.99-.53.89-1.21,1.61-2.05,2.16-.84.55-1.79.83-2.84.83s-1.82-.28-2.45-.83c-.62-.55-.94-1.33-.94-2.34,0-.91.19-1.73.58-2.45.38-.72.89-1.34,1.51-1.87.62-.53,1.32-.91,2.09-1.15-.1-.1-.22-.17-.36-.22-.14-.05-.31-.07-.5-.07Z"/><path d="M86.9,41.11c2.45-.86,4.69-1.75,6.73-2.66,2.04-.91,3.71-1.9,5-2.95,1.78-1.49,3.18-3.25,4.21-5.29,1.03-2.04,1.55-4.28,1.55-6.73,0-1.25-.1-2.05-.29-2.41-.19-.36-.48-.54-.86-.54-1.15,0-2.39.53-3.71,1.58-1.32,1.06-2.63,2.51-3.92,4.36-1.3,1.85-2.48,3.94-3.56,6.26s-1.94,4.8-2.59,7.42-.97,5.2-.97,7.74.47,4.27,1.4,5.33c.94,1.06,2.17,1.58,3.71,1.58s3.34-.49,5.26-1.48c1.92-.98,3.82-2.75,5.69-5.29l1.15.58c-.96,1.58-2.21,3.12-3.74,4.61-1.54,1.49-3.28,2.7-5.22,3.64-1.94.94-4.04,1.4-6.3,1.4-1.97,0-3.72-.38-5.26-1.15-1.54-.77-2.73-1.91-3.56-3.42-.84-1.51-1.26-3.37-1.26-5.58s.4-4.62,1.19-7.24,1.92-5.2,3.38-7.74c1.46-2.54,3.2-4.88,5.22-7.02s4.27-3.83,6.77-5.08c2.5-1.25,5.14-1.87,7.92-1.87,1.73,0,3.17.42,4.32,1.26,1.15.84,1.73,2.1,1.73,3.78,0,1.92-.54,3.71-1.62,5.36-1.08,1.66-2.53,3.16-4.36,4.5-1.82,1.34-3.81,2.54-5.94,3.6-2.14,1.06-4.27,1.97-6.41,2.74-2.14.77-4.04,1.39-5.72,1.87l.07-1.15Z"/><path d="M122.04,55.44c1.06,0,2.23-.62,3.53-1.87,1.3-1.25,2.62-2.96,3.96-5.15,1.34-2.18,2.59-4.72,3.74-7.6,1.15-2.88,2.11-5.95,2.88-9.22l-1.3,7.85c-1.63,4.56-3.3,8.22-5,10.98-1.7,2.76-3.44,4.75-5.22,5.98-1.78,1.22-3.6,1.84-5.47,1.84-2.4,0-4.2-.8-5.4-2.41-1.2-1.61-1.8-3.73-1.8-6.37,0-2.4.4-4.97,1.19-7.7.79-2.74,1.9-5.45,3.31-8.14,1.42-2.69,3.04-5.11,4.86-7.27,1.82-2.16,3.79-3.9,5.9-5.22,2.11-1.32,4.22-1.98,6.34-1.98,1.63,0,2.89.76,3.78,2.27.89,1.51,1.09,3.71.61,6.59l-.79.43c.34-2.26.2-4.07-.4-5.44-.6-1.37-1.57-2.05-2.92-2.05-1.15,0-2.38.59-3.67,1.76-1.3,1.18-2.56,2.79-3.78,4.82-1.22,2.04-2.35,4.33-3.38,6.88-1.03,2.54-1.84,5.17-2.41,7.88-.58,2.71-.86,5.36-.86,7.96,0,1.92.2,3.26.61,4.03.41.77.97,1.15,1.69,1.15ZM139.25,20.16c1.44-.05,2.83-.14,4.18-.29,1.34-.14,2.59-.38,3.74-.72l-9.14,31.9c-.14.53-.28,1.12-.4,1.76-.12.65-.1,1.21.07,1.69.17.48.61.72,1.33.72.86,0,1.73-.47,2.59-1.4.86-.94,1.73-2.72,2.59-5.36l1.01-2.95h1.37l-1.8,5.26c-.67,1.97-1.49,3.48-2.45,4.54-.96,1.06-1.98,1.81-3.06,2.27-1.08.46-2.12.68-3.13.68-2.11,0-3.6-.67-4.46-2.02-.62-1.06-.83-2.34-.61-3.85.22-1.51.54-3.08.97-4.72l7.2-27.5Z"/><path d="M159.77,51.12c-.38,1.49-.29,2.56.29,3.2.58.65,1.34.97,2.3.97,1.06,0,2.11-.47,3.17-1.4,1.06-.94,2.06-2.75,3.02-5.44l1.01-2.88h1.37l-1.51,4.39c-1.01,3.07-2.38,5.22-4.1,6.44-1.73,1.22-3.74,1.84-6.05,1.84-2.06,0-3.64-.44-4.72-1.33s-1.72-2.13-1.91-3.74c-.19-1.61,0-3.42.58-5.44l11.02-38.45c1.44-.05,2.82-.14,4.14-.29,1.32-.14,2.53-.38,3.64-.72l-12.24,42.84ZM177.69,20.16l-.22,1.44h-23.26l.36-1.44h23.11Z"/><path d="M181.37,57.24h-7.56l14.26-48.02c.48-1.63.42-2.83-.18-3.6-.6-.77-2.08-1.15-4.43-1.15l.43-1.51c2.93-.05,5.54-.32,7.85-.83s4.44-1.21,6.41-2.12l-16.78,57.24ZM183.31,46.66c1.87-5.18,3.64-9.55,5.29-13.1,1.66-3.55,3.29-6.38,4.9-8.5,1.61-2.11,3.26-3.62,4.97-4.54,1.7-.91,3.52-1.37,5.44-1.37,2.26,0,3.83.53,4.72,1.58.89,1.06,1.31,2.42,1.26,4.1-.05,1.68-.38,3.41-1.01,5.18l-6.98,21.1c-.38,1.25-.53,2.26-.43,3.02.1.77.6,1.15,1.51,1.15.82,0,1.64-.46,2.48-1.37.84-.91,1.74-2.71,2.7-5.4l1.08-2.95h1.37l-1.8,5.26c-.67,2.02-1.51,3.55-2.52,4.61-1.01,1.06-2.08,1.79-3.2,2.2-1.13.41-2.22.61-3.28.61-2.06,0-3.53-.46-4.39-1.37-.86-.91-1.25-2.17-1.15-3.78.1-1.61.46-3.4,1.08-5.36l6.7-20.23c.29-.77.52-1.58.68-2.45.17-.86.13-1.61-.11-2.23-.24-.62-.86-.94-1.87-.94-1.1,0-2.3.56-3.6,1.69-1.3,1.13-2.64,2.72-4.03,4.79-1.39,2.06-2.76,4.51-4.1,7.34-1.34,2.83-2.64,5.96-3.89,9.4-1.25,3.43-2.4,7.07-3.46,10.91l1.66-9.36Z"/><path d="M221.25,41.11c2.45-.86,4.69-1.75,6.73-2.66,2.04-.91,3.71-1.9,5-2.95,1.78-1.49,3.18-3.25,4.21-5.29,1.03-2.04,1.55-4.28,1.55-6.73,0-1.25-.1-2.05-.29-2.41-.19-.36-.48-.54-.86-.54-1.15,0-2.39.53-3.71,1.58-1.32,1.06-2.63,2.51-3.92,4.36-1.3,1.85-2.48,3.94-3.56,6.26s-1.94,4.8-2.59,7.42-.97,5.2-.97,7.74.47,4.27,1.4,5.33c.94,1.06,2.17,1.58,3.71,1.58s3.34-.49,5.26-1.48c1.92-.98,3.82-2.75,5.69-5.29l1.15.58c-.96,1.58-2.21,3.12-3.74,4.61-1.54,1.49-3.28,2.7-5.22,3.64-1.94.94-4.04,1.4-6.3,1.4-1.97,0-3.72-.38-5.26-1.15-1.54-.77-2.73-1.91-3.56-3.42-.84-1.51-1.26-3.37-1.26-5.58s.4-4.62,1.19-7.24,1.92-5.2,3.38-7.74c1.46-2.54,3.2-4.88,5.22-7.02s4.27-3.83,6.77-5.08c2.5-1.25,5.14-1.87,7.92-1.87,1.73,0,3.17.42,4.32,1.26,1.15.84,1.73,2.1,1.73,3.78,0,1.92-.54,3.71-1.62,5.36-1.08,1.66-2.53,3.16-4.36,4.5-1.82,1.34-3.81,2.54-5.94,3.6-2.14,1.06-4.27,1.97-6.41,2.74-2.14.77-4.04,1.39-5.72,1.87l.07-1.15Z"/><path d="M275.54,55.51c1.06,0,2.28-.65,3.67-1.94,1.39-1.3,2.81-3.1,4.25-5.4,1.44-2.3,2.8-5,4.07-8.1,1.27-3.1,2.32-6.4,3.13-9.9l-1.08,7.78c-1.78,4.85-3.54,8.76-5.29,11.74-1.75,2.98-3.56,5.15-5.44,6.52s-3.94,2.05-6.19,2.05c-1.49,0-2.83-.35-4.03-1.04-1.2-.7-2.14-1.75-2.81-3.17-.67-1.42-1.01-3.25-1.01-5.51s.37-4.7,1.12-7.34c.74-2.64,1.8-5.26,3.17-7.85,1.37-2.59,3.02-4.96,4.97-7.09,1.94-2.13,4.12-3.85,6.52-5.15,2.4-1.3,4.99-1.94,7.78-1.94,1.25,0,2.32.4,3.2,1.19.89.79,1.38,1.96,1.48,3.49l-.58,1.44c-.19-1.58-.62-2.72-1.3-3.42-.67-.7-1.49-1.04-2.45-1.04-1.63,0-3.24.6-4.82,1.8-1.58,1.2-3.05,2.82-4.39,4.86-1.34,2.04-2.53,4.31-3.56,6.8-1.03,2.5-1.84,5.08-2.41,7.74-.58,2.66-.86,5.22-.86,7.67,0,1.97.24,3.43.72,4.39.48.96,1.2,1.44,2.16,1.44ZM292.03,51.12c-.34,1.1-.44,2.08-.32,2.92.12.84.64,1.26,1.55,1.26.86,0,1.69-.48,2.48-1.44.79-.96,1.62-2.74,2.48-5.33l1.01-2.95h1.37l-1.73,5.26c-.58,1.92-1.36,3.42-2.34,4.5-.98,1.08-2.04,1.84-3.17,2.27-1.13.43-2.2.65-3.2.65-2.93,0-4.56-1.27-4.9-3.82-.19-.82-.23-1.79-.11-2.92.12-1.13.4-2.39.83-3.78l10.22-38.52c.43-1.63.36-2.83-.22-3.6-.58-.77-2.04-1.15-4.39-1.15l.43-1.51c2.93-.05,5.51-.32,7.74-.83s4.36-1.21,6.37-2.12l-14.11,51.12Z"/><path d="M311.25,41.11c2.45-.86,4.69-1.75,6.73-2.66,2.04-.91,3.71-1.9,5-2.95,1.78-1.49,3.18-3.25,4.21-5.29,1.03-2.04,1.55-4.28,1.55-6.73,0-1.25-.1-2.05-.29-2.41-.19-.36-.48-.54-.86-.54-1.15,0-2.39.53-3.71,1.58-1.32,1.06-2.63,2.51-3.92,4.36-1.3,1.85-2.48,3.94-3.56,6.26s-1.94,4.8-2.59,7.42-.97,5.2-.97,7.74.47,4.27,1.4,5.33c.94,1.06,2.17,1.58,3.71,1.58s3.34-.49,5.26-1.48c1.92-.98,3.82-2.75,5.69-5.29l1.15.58c-.96,1.58-2.21,3.12-3.74,4.61-1.54,1.49-3.28,2.7-5.22,3.64-1.94.94-4.04,1.4-6.3,1.4-1.97,0-3.72-.38-5.26-1.15-1.54-.77-2.73-1.91-3.56-3.42-.84-1.51-1.26-3.37-1.26-5.58s.4-4.62,1.19-7.24,1.92-5.2,3.38-7.74c1.46-2.54,3.2-4.88,5.22-7.02s4.27-3.83,6.77-5.08c2.5-1.25,5.14-1.87,7.92-1.87,1.73,0,3.17.42,4.32,1.26,1.15.84,1.73,2.1,1.73,3.78,0,1.92-.54,3.71-1.62,5.36-1.08,1.66-2.53,3.16-4.36,4.5-1.83,1.34-3.81,2.54-5.94,3.6-2.14,1.06-4.27,1.97-6.41,2.74-2.14.77-4.04,1.39-5.72,1.87l.07-1.15Z"/><path d="M343.07,41.11c2.45-.86,4.69-1.75,6.73-2.66,2.04-.91,3.71-1.9,5-2.95,1.78-1.49,3.18-3.25,4.21-5.29,1.03-2.04,1.55-4.28,1.55-6.73,0-1.25-.1-2.05-.29-2.41-.19-.36-.48-.54-.86-.54-1.15,0-2.39.53-3.71,1.58s-2.63,2.51-3.92,4.36c-1.3,1.85-2.48,3.94-3.56,6.26s-1.94,4.8-2.59,7.42c-.65,2.62-.97,5.2-.97,7.74s.47,4.27,1.4,5.33c.94,1.06,2.17,1.58,3.71,1.58s3.33-.49,5.26-1.48c1.92-.98,3.82-2.75,5.69-5.29l1.15.58c-.96,1.58-2.21,3.12-3.74,4.61-1.54,1.49-3.28,2.7-5.22,3.64-1.94.94-4.04,1.4-6.3,1.4-1.97,0-3.72-.38-5.26-1.15-1.54-.77-2.73-1.91-3.56-3.42-.84-1.51-1.26-3.37-1.26-5.58s.4-4.62,1.19-7.24,1.92-5.2,3.38-7.74c1.46-2.54,3.2-4.88,5.22-7.02,2.02-2.14,4.27-3.83,6.77-5.08,2.5-1.25,5.14-1.87,7.92-1.87,1.73,0,3.17.42,4.32,1.26,1.15.84,1.73,2.1,1.73,3.78,0,1.92-.54,3.71-1.62,5.36-1.08,1.66-2.53,3.16-4.36,4.5-1.82,1.34-3.8,2.54-5.94,3.6-2.14,1.06-4.27,1.97-6.41,2.74-2.14.77-4.04,1.39-5.72,1.87l.07-1.15Z"/><path d="M383.61,9.43c1.44-.1,2.83-.24,4.18-.43,1.34-.19,2.62-.5,3.82-.94l-15.77,55.22c-.62,2.16-.38,3.61.72,4.36,1.1.74,2.78,1.12,5.04,1.12l-.43,1.51c-1.01-.05-2.45-.11-4.32-.18-1.87-.07-3.84-.11-5.9-.11-1.63,0-3.29.04-4.97.11-1.68.07-2.93.13-3.74.18l.43-1.51c1.73,0,2.98-.32,3.74-.97.77-.65,1.39-1.81,1.87-3.49l15.34-54.86ZM368.99,31.68c1.82-1.82,3.54-3.65,5.15-5.47,1.61-1.82,3.17-3.98,4.68-6.48,1.51-2.5,3.04-5.66,4.57-9.5l.22,1.15c-1.01,3.31-2.23,6.21-3.67,8.68-1.44,2.47-3.01,4.72-4.72,6.73-1.7,2.02-3.52,3.96-5.44,5.83l-.79-.94ZM394.91,21.96c-1.15,0-2.44.79-3.85,2.38-1.42,1.58-2.84,3.72-4.28,6.41-1.44,2.69-2.81,5.74-4.1,9.14s-2.38,6.94-3.24,10.58l1.3-7.63c1.92-5.71,3.77-10.3,5.54-13.75,1.78-3.46,3.6-5.98,5.47-7.56s3.84-2.38,5.9-2.38c2.45,0,4.38.88,5.8,2.63,1.42,1.75,2.12,4.36,2.12,7.81,0,2.21-.3,4.6-.9,7.16-.6,2.57-1.49,5.11-2.66,7.63-1.18,2.52-2.63,4.84-4.36,6.95-1.73,2.11-3.7,3.79-5.9,5.04-2.21,1.25-4.68,1.87-7.42,1.87-1.44,0-2.75-.38-3.92-1.15-1.18-.77-2-1.85-2.48-3.24l.58-1.37c.62,1.44,1.33,2.46,2.12,3.06.79.6,1.72.9,2.77.9,1.54,0,3.02-.61,4.46-1.84,1.44-1.22,2.77-2.87,4-4.93s2.3-4.34,3.24-6.84c.94-2.5,1.64-5.01,2.12-7.56.48-2.54.72-4.92.72-7.13s-.26-3.79-.79-4.75c-.53-.96-1.27-1.44-2.23-1.44Z"/><path d="M416.44,51.12c-.34,1.34-.42,2.38-.25,3.1.17.72.66,1.08,1.48,1.08s1.63-.48,2.45-1.44c.82-.96,1.68-2.74,2.59-5.33l1.08-2.95h1.37l-1.8,5.26c-.62,1.87-1.42,3.35-2.38,4.43-.96,1.08-1.99,1.85-3.1,2.3-1.1.46-2.26.68-3.46.68-1.58,0-2.78-.29-3.6-.86-.82-.58-1.36-1.38-1.62-2.41-.26-1.03-.31-2.17-.14-3.42.17-1.25.44-2.52.83-3.82l11.59-38.52c.48-1.63.43-2.83-.14-3.6-.58-.77-2.04-1.15-4.39-1.15l.5-1.51c2.88-.05,5.44-.32,7.67-.83,2.23-.5,4.38-1.21,6.44-2.12l-15.12,51.12Z"/><path d="M433.36,67.32c2.16-1.1,4.42-2.6,6.77-4.5,2.35-1.9,4.78-4.45,7.27-7.67,2.78-3.5,5.28-7.39,7.49-11.66,2.21-4.27,3.79-8.52,4.75-12.74-.91-.53-1.84-1.16-2.77-1.91-.94-.74-1.71-1.59-2.3-2.56-.6-.96-.88-2.04-.83-3.24.1-1.25.5-2.21,1.22-2.88.72-.67,1.68-1.01,2.88-1.01,1.39,0,2.41.52,3.06,1.55.65,1.03.97,2.53.97,4.5,0,2.4-.4,4.98-1.19,7.74-.79,2.76-1.87,5.58-3.24,8.46-1.37,2.88-2.89,5.65-4.57,8.32-1.68,2.66-3.41,5.1-5.18,7.31-1.01,1.25-2.27,2.63-3.78,4.14-1.51,1.51-3.22,2.99-5.11,4.43-1.9,1.44-4,2.64-6.3,3.6-1.3.58-2.44.98-3.42,1.22s-1.79.36-2.41.36c-1.15,0-2.12-.29-2.92-.86s-1.19-1.39-1.19-2.45.42-1.99,1.26-2.66c.84-.67,1.84-1.01,2.99-1.01,1.25,0,2.41.35,3.49,1.04,1.08.7,2.1,1.52,3.06,2.48ZM449.63,53.86l-5.76,6.41-5.62-33.84c-.24-1.44-.5-2.44-.79-2.99-.29-.55-.75-.83-1.37-.83-.48,0-1.03.4-1.66,1.19-.62.79-1.39,2.46-2.3,5l-1.01,2.95h-1.37l1.8-5.26c1.01-2.93,2.26-4.88,3.74-5.87,1.49-.98,3.05-1.48,4.68-1.48s2.99.49,3.92,1.48c.94.98,1.6,2.82,1.98,5.51l3.74,27.72Z"/><path d="M463.24,54.36c0-1.58.6-2.98,1.8-4.18,1.2-1.2,2.57-1.8,4.1-1.8,1.25,0,2.23.37,2.95,1.12.72.75,1.08,1.69,1.08,2.84,0,1.06-.28,2.03-.83,2.92-.55.89-1.27,1.61-2.16,2.16-.89.55-1.86.83-2.92.83-1.25,0-2.23-.36-2.95-1.08-.72-.72-1.08-1.66-1.08-2.81Z"/></g></svg>