<?xml version="1.0" encoding="UTF-8"?><svg id="b" xmlns="http://www.w3.org/2000/svg" width="444.77" height="86.18" viewBox="0 0 444.77 86.18"><g id="c"><path d="M49.72,64.66c-.67.1-1.38.1-2.12,0-.74-.1-1.43-.43-2.05-1.01-1.01-.53-1.78-1.19-2.3-1.98-.53-.79-.98-1.86-1.37-3.2-.34-1.3-.62-2.18-.86-2.66-.53-1.34-1.03-3.17-1.51-5.47-.24-1.2-.48-2.24-.72-3.13-.24-.89-.48-1.64-.72-2.27-.1-.33-.18-.85-.25-1.55-.07-.7-.16-1.57-.25-2.63-.19-2.06-.48-3.6-.86-4.61v-.14c0-.19-.02-.34-.07-.43-.14-1.25-.29-1.87-.43-1.87-.86,1.63-1.87,4.15-3.02,7.56-.58,1.63-1.01,2.86-1.3,3.67-1.06,1.44-2.57,2.28-4.54,2.52-1.01-.67-1.91-1.5-2.7-2.48-.79-.98-1.49-2.05-2.09-3.2-.6-1.15-1.13-2.33-1.58-3.53-.46-1.2-.88-2.35-1.26-3.46-.24-.67-.42-1.2-.54-1.58-.12-.38-.2-.6-.25-.65l-1.22-4.18c-.38,2.11-.84,4.17-1.37,6.16-.53,1.99-1.13,3.97-1.8,5.94-2.98,7.87-5.28,13.46-6.91,16.78-.05.05-.18.17-.4.36-.22.19-.44.4-.68.61-.24.22-.46.4-.65.54-.19.14-.34.22-.43.22s-.31.08-.65.25c-.34.17-.55.2-.65.11-.05-.1-.26-.1-.65,0-.82-.29-1.85-1.63-3.1-4.03-.48-1.06-.53-2.23-.14-3.53,1.25-.82,2.78-2.76,4.61-5.83.1-.29.29-.76.58-1.4.29-.65.65-1.48,1.08-2.48l1.94-4.54c1.01-2.5,1.77-5,2.3-7.52.53-2.52.98-5.1,1.37-7.74.53-3.65,1.06-6.17,1.58-7.56.72-.96,1.34-1.44,1.87-1.44.38,0,.89.14,1.51.43,1.01.38,1.81.88,2.41,1.48.6.6,1.21,1.45,1.84,2.56.05.14.17.37.36.68.19.31.36.59.5.83l.22.43,4.54,16.49c0,.14.19.29.58.43.48-.48,1.13-1.8,1.94-3.96.38-1.05.71-1.92.97-2.59.26-.67.47-1.15.61-1.44,1.2-2.64,1.99-6.12,2.38-10.44-.19-.53.17-1.39,1.08-2.59.24-.24.41-.43.5-.58.1-.14.17-.24.22-.29.19,0,.58.04,1.15.11.58.07,1.1.16,1.58.25l.79.14s.18.08.4.25c.22.17.46.36.72.58.26.22.52.43.76.65.24.22.43.4.58.54.58.38.98,1.34,1.22,2.88.24,1.63.38,2.47.43,2.52.05.38.07,1.2.07,2.45v5.11c0,4.22.22,6.82.65,7.78.19,2.59.67,5.48,1.44,8.68.77,3.19,1.82,6.73,3.17,10.62.05.19.19.48.43.86.24.38.55.91.94,1.58.38.62.67,1.13.86,1.51.19.38.31.65.36.79.24.43.12.96-.36,1.58-.48.62-.72.98-.72,1.08Z"/><path d="M69.3,59.76c-1.25-.24-2.28-.47-3.1-.68-.82-.22-1.46-.37-1.94-.47-.91-.24-1.92-.74-3.02-1.51-.53-.38-.97-.77-1.33-1.15-.36-.38-.7-.85-1.01-1.4-.31-.55-.61-1.21-.9-1.98-.29-.77-.62-1.68-1.01-2.74l.36-7.63c-.14-.29-.26-.64-.36-1.04-.1-.41-.14-.83-.14-1.26s.05-.85.14-1.26c.1-.41.22-.73.36-.97,1.06-.77,2.23-1.58,3.53-2.45,1.3-.86,2.74-1.78,4.32-2.74,1.97-1.2,4.49-1.8,7.56-1.8,3.6,0,7.03.76,10.3,2.27,3.26,1.51,5.98,3.64,8.14,6.37,1.63,2.21,2.45,4.37,2.45,6.48,0,1.06-.22,2.09-.65,3.1-3.12,5.33-7.68,8.67-13.68,10.01-.77.29-1.62.5-2.56.65-.94.14-1.62.24-2.05.29h-2.23c-.38,0-.78-.01-1.19-.04-.41-.03-.79-.04-1.15-.04h-.83ZM72.26,54.29c1.25,0,2.69-.17,4.32-.5,1.63-.33,3.19-.84,4.68-1.51,1.49-.67,2.78-1.56,3.89-2.66,1.1-1.1,1.75-2.4,1.94-3.89-.1-.82-.28-1.54-.54-2.16-.26-.62-.56-1.13-.9-1.51-.19-.19-.49-.5-.9-.94-.41-.43-.68-.72-.83-.86-4.13-2.26-7.22-3.38-9.29-3.38-1.44,0-2.5.14-3.17.43-1.3.48-2.02.79-2.16.94-.29.24-.74.58-1.37,1.01-.62.43-1.06.77-1.3,1.01-1.58,1.25-2.45,2.42-2.59,3.53-.14.58-.23,1.12-.25,1.62-.02.5-.04.95-.04,1.33,0,.34.01.82.04,1.44.02.62.04,1.18.04,1.66.34.67.89,1.4,1.66,2.2.77.79,1.44,1.26,2.02,1.4,1.1.58,2.69.86,4.75.86Z"/><path d="M112.65,59.98c-.82,0-1.38-.05-1.69-.14-.31-.1-.76-.38-1.33-.86-.72-.62-1.34-1.26-1.87-1.91-.53-.65-1.03-1.33-1.51-2.05-.48-.72-.95-1.51-1.4-2.38-.46-.86-.95-1.85-1.48-2.95-.62-1.97-1.16-3.72-1.62-5.26-.46-1.54-.8-2.88-1.04-4.03-.38-1.2-1.39-3.12-3.02-5.76v-1.15c0-1.63.17-2.78.5-3.46l.65-.65c.91-1.01,1.9-1.54,2.95-1.58.29-.1.5-.14.65-.14.53,0,1.14.35,1.84,1.04.7.7,1.14,1.5,1.33,2.41.24,3.26.96,7.49,2.16,12.67l.65,1.73c.19.53.42,1.1.68,1.73.26.62.58,1.24.94,1.84.36.6.78,1.13,1.26,1.58.48.46,1.03.76,1.66.9.14.05.31.07.5.07.62,0,1.2-.24,1.73-.72.29-.29.7-.73,1.22-1.33.53-.6,1.06-1.24,1.58-1.91.53-.67,1.04-1.32,1.55-1.94.5-.62.85-1.1,1.04-1.44.43-.58.96-1.36,1.58-2.34.62-.98,1.13-1.86,1.51-2.63.72-1.1,1.42-2.54,2.09-4.32,1.1-2.54,2.04-4.34,2.81-5.4.34-.33,1.01-.5,2.02-.5h.72c.1.05.26.07.5.07.62.05,1.19.42,1.69,1.12.5.7.76,1.4.76,2.12,0,.34-.36,1.3-1.08,2.88l-.29.65c-1.58,2.93-3.18,5.62-4.79,8.06-1.61,2.45-3.25,4.71-4.93,6.77-.14.14-.31.36-.5.65-.19.29-.4.58-.61.86-.22.29-.43.58-.65.86-.22.29-.37.5-.47.65-.53.91-1.3,1.84-2.3,2.77-1.01.94-1.94,1.69-2.81,2.27-.19.19-.38.35-.58.47-.19.12-.34.23-.43.32-.14.1-.26.16-.36.18-.1.02-.19.06-.29.11-.1.05-.6.07-1.51.07Z"/><path d="M137.27,53.14c-.1-.53-.18-1.04-.25-1.55-.07-.5-.11-1.02-.11-1.55,0-1.49.35-3.2,1.04-5.15.7-1.94,1.98-4.36,3.85-7.24,2.98-3.89,6.34-6.46,10.08-7.7l1.15-.22c.86-.14,1.58-.22,2.16-.22h.43c1.34.05,2.62.29,3.82.72,1.2.43,2.26,1.02,3.17,1.76.91.74,1.66,1.64,2.23,2.7s.89,2.23.94,3.53v.22c0,1.2-.25,2.4-.76,3.6-.5,1.2-1.19,2.28-2.05,3.24-.86.96-1.86,1.76-2.99,2.41-1.13.65-2.32,1.02-3.56,1.12-.82.34-1.75.5-2.81.5-2.4,0-4.94-.7-7.63-2.09l-2.16-1.08c-.62,1.2-.94,2.16-.94,2.88.24,1.3.72,2.51,1.44,3.64.72,1.13,1.58,2.11,2.59,2.95,1.01.84,2.14,1.5,3.38,1.98,1.25.48,2.52.72,3.82.72h.79c.19.05.5.07.94.07,1.54,0,3.41-.36,5.62-1.08l2.09-.58c1.34-.53,3.34-.91,5.98-1.15h.36c.91,0,1.44.46,1.58,1.37v2.45c-1.63,1.78-3.58,2.74-5.83,2.88l-1.8.5c-3.6,1.01-6.31,1.51-8.14,1.51h-.43c-.24.05-.46.07-.65.07h-.58c-3.31,0-6.43-.91-9.36-2.74-3.31-1.73-5.78-4.56-7.42-8.5ZM146.27,42.12c1.25.38,1.94.58,2.09.58.38.19.77.36,1.15.5.38.14.84.24,1.37.29.24.05.67.07,1.3.07h2.38c.53-.1,1.08-.29,1.66-.58.58-.29,1.12-.64,1.62-1.04.5-.41.94-.85,1.3-1.33.36-.48.59-.96.68-1.44.05-.14.07-.34.07-.58,0-1.2-1.15-2.18-3.46-2.95l-1.3-.43c-.77,0-1.51.17-2.23.5-.72.34-1.4.76-2.05,1.26s-1.27,1.06-1.87,1.66-1.14,1.16-1.62,1.69l-1.08,1.8Z"/><path d="M244.91,62.42c-.53.19-1.2-.17-2.02-1.08-.19-.24-.35-.42-.47-.54-.12-.12-.2-.21-.25-.25-.05-2.21.02-4.42.22-6.62-1.58,1.01-3.16,1.84-4.72,2.48-1.56.65-3.19,1.16-4.9,1.55-1.7.38-3.5.65-5.4.79-1.9.14-3.95.22-6.16.22-2.74.29-5.4-.23-7.99-1.55s-4.78-3.08-6.55-5.29c-3.36-4.75-3.67-9.77-.94-15.05,1.1-2.54,2.88-5.06,5.33-7.56,2.02-2.06,4.1-3.9,6.26-5.51,2.16-1.61,4.4-3.06,6.73-4.36,2.33-1.3,4.74-2.46,7.24-3.49,2.5-1.03,5.11-2.03,7.85-2.99.38-.1,1.39-.14,3.02-.14l1.22-.5,4.03-.14c1.01.24,1.88.83,2.63,1.76.74.94,1.16,1.91,1.26,2.92-.77,2.78-2.59,4.3-5.47,4.54-.58.14-1.14.26-1.69.36-.55.1-1.09.14-1.62.14-1.34,0-2.69-.26-4.03-.79l-1.22-.58c-1.2.24-2.23.48-3.1.72-.86.24-1.69.52-2.48.83-.79.31-1.6.67-2.41,1.08-.82.41-1.75.92-2.81,1.55-.62.43-1.32.94-2.09,1.51-.77.58-1.54,1.19-2.3,1.84-.77.65-1.51,1.28-2.23,1.91s-1.34,1.2-1.87,1.73c-4.7,4.51-6.96,8.52-6.77,12.02.1,1.2.46,2.32,1.08,3.35.62,1.03,1.4,1.93,2.34,2.7.94.77,1.98,1.38,3.13,1.84,1.15.46,2.3.71,3.46.76.29.05.61.08.97.11.36.02.73.04,1.12.04.96,0,2.03-.06,3.2-.18,1.18-.12,2.36-.29,3.56-.5,1.2-.22,2.38-.47,3.53-.76s2.16-.6,3.02-.94c3.6-1.68,6.19-3.19,7.78-4.54,1.58-1.34,2.06-2.5,1.44-3.46-.05-.05-1.22-.14-3.53-.29-.38,0-1.13-.02-2.23-.07-1.1-.05-2.26-.11-3.46-.18-1.2-.07-2.32-.14-3.35-.22-1.03-.07-1.69-.16-1.98-.25-.82-.82-1.37-1.49-1.66-2.02-.29-.53-.36-1.3-.22-2.3-.1-2.26.53-3.7,1.87-4.32.38.05.97.05,1.76,0,.79-.05,1.43-.07,1.91-.07.48.05,1.02.18,1.62.4.6.22,1.12.56,1.55,1.04.29.29.6.43.94.43.43.14,1.7.17,3.82.07,2.02-.1,3.17-.02,3.46.22.24-.1.55-.17.94-.22.38-.05.76-.1,1.12-.14.36-.05.7-.08,1.01-.11.31-.02.49-.04.54-.04,2.64,1.49,4.01,3.67,4.1,6.55-.86,5.09-2.23,9.41-4.1,12.96-.14.29-.3.68-.47,1.19-.17.5-.35,1.06-.54,1.66-.19.6-.38,1.22-.58,1.87-.19.65-.41,1.21-.65,1.69-.53.96-1.15,1.68-1.87,2.16l-.94.07Z"/><path d="M260.89,53.14c-.1-.53-.18-1.04-.25-1.55-.07-.5-.11-1.02-.11-1.55,0-1.49.35-3.2,1.04-5.15.7-1.94,1.98-4.36,3.85-7.24,2.98-3.89,6.34-6.46,10.08-7.7l1.15-.22c.86-.14,1.58-.22,2.16-.22h.43c1.34.05,2.62.29,3.82.72,1.2.43,2.26,1.02,3.17,1.76.91.74,1.66,1.64,2.23,2.7s.89,2.23.94,3.53v.22c0,1.2-.25,2.4-.76,3.6-.5,1.2-1.19,2.28-2.05,3.24-.86.96-1.86,1.76-2.99,2.41-1.13.65-2.32,1.02-3.56,1.12-.82.34-1.75.5-2.81.5-2.4,0-4.94-.7-7.63-2.09l-2.16-1.08c-.62,1.2-.94,2.16-.94,2.88.24,1.3.72,2.51,1.44,3.64.72,1.13,1.58,2.11,2.59,2.95,1.01.84,2.14,1.5,3.38,1.98,1.25.48,2.52.72,3.82.72h.79c.19.05.5.07.94.07,1.54,0,3.41-.36,5.62-1.08l2.09-.58c1.34-.53,3.34-.91,5.98-1.15h.36c.91,0,1.44.46,1.58,1.37v2.45c-1.63,1.78-3.58,2.74-5.83,2.88l-1.8.5c-3.6,1.01-6.31,1.51-8.14,1.51h-.43c-.24.05-.46.07-.65.07h-.58c-3.31,0-6.43-.91-9.36-2.74-3.31-1.73-5.78-4.56-7.42-8.5ZM269.89,42.12c1.25.38,1.94.58,2.09.58.38.19.77.36,1.15.5.38.14.84.24,1.37.29.24.05.67.07,1.3.07h2.38c.53-.1,1.08-.29,1.66-.58.58-.29,1.12-.64,1.62-1.04.5-.41.94-.85,1.3-1.33.36-.48.59-.96.68-1.44.05-.14.07-.34.07-.58,0-1.2-1.15-2.18-3.46-2.95l-1.3-.43c-.77,0-1.51.17-2.23.5-.72.34-1.4.76-2.05,1.26s-1.27,1.06-1.87,1.66-1.14,1.16-1.62,1.69l-1.08,1.8Z"/><path d="M328.07,59.62c-.53,0-.82-.24-.86-.72-.38-.67-.71-1.21-.97-1.62-.26-.41-.52-.8-.76-1.19-.24-.38-.43-.65-.58-.79-.91-3.07-1.51-6.12-1.8-9.14-.05-.1-.13-.36-.25-.79-.12-.43-.25-.9-.4-1.4-.14-.5-.28-.98-.4-1.44-.12-.46-.23-.76-.32-.9-.1-.38-.37-.8-.83-1.26-.46-.46-.83-.68-1.12-.68-.34,0-.6.05-.79.14-3.12,2.59-6,5.93-8.64,10.01-.05.1-.23.4-.54.9-.31.5-.73,1.24-1.26,2.2-.58.96-1.06,1.79-1.44,2.48-.38.7-.67,1.26-.86,1.69-.43.67-.98,1.01-1.66,1.01-.29,0-.5-.02-.65-.07l-3.17-3.24v-2.23c.1-.62.22-1.54.36-2.74.14-1.2.29-2.71.43-4.54s.26-3.26.36-4.32c.1-1.06.17-1.75.22-2.09,0-.1-.04-.36-.11-.79-.07-.43-.16-1.01-.25-1.73-.05-.14-.07-.46-.07-.94,0-.77.24-1.38.72-1.84.48-.46,1.06-.68,1.73-.68h.22c1.49,0,2.57.48,3.24,1.44.34,1.2.5,2.88.5,5.04,0,.34-.01.73-.04,1.19-.02.46-.06.89-.11,1.3-.05.41-.1.9-.14,1.48.14-.1.46-.43.94-1.01.48-.58.98-1.2,1.51-1.87.53-.67,1.02-1.3,1.48-1.87.46-.58.73-.94.83-1.08.29-.33.71-.89,1.26-1.66.55-.77,1.07-1.39,1.55-1.87.77-.86,1.62-1.55,2.56-2.05s1.98-.78,3.13-.83c.29-.1.5-.14.65-.14.33,0,.72.1,1.15.29.43.19.96.7,1.58,1.51.38.43.65.77.79,1.01.14.24.28.46.4.65.12.19.25.41.4.65.14.24.38.62.72,1.15,1.49,3.41,2.23,7.18,2.23,11.3l1.37,5.9c.19.53.36,1.01.5,1.44.1.34.19.65.29.94.1.29.14.41.14.36v.43c0,1.06-.31,1.82-.94,2.3-.14.05-.49.18-1.04.4-.55.22-.97.32-1.26.32Z"/><path d="M354.49,63.5c-2.16-.05-3.79-.77-4.9-2.16-.1-.14-.24-.4-.43-.76-.19-.36-.48-.88-.86-1.55-.48-.82-.9-1.64-1.26-2.48-.36-.84-.54-1.74-.54-2.7,0-.43.02-.77.07-1.01-.24-2.4-.42-4.51-.54-6.34-.12-1.82-.18-3.41-.18-4.75v-.97c0-.31.02-.59.07-.83.05-.19.07-.53.07-1.01s-.02-1.01-.07-1.58c-.05-.58-.12-1.2-.22-1.87-.29-1.06-.55-1.7-.79-1.94-1.44.14-2.47.43-3.1.86-.43,0-1.01.14-1.73.43-.72.29-1.32.43-1.8.43h-.43c-.48-.24-.98-.65-1.51-1.22-.53-.58-1.01-1.03-1.44-1.37-.14-.38-.22-.89-.22-1.51,0-.14.01-.48.04-1.01.02-.53.18-1.01.47-1.44l2.38-2.09c1.1-.05,2.23-.12,3.38-.22,1.15-.1,2.35-.26,3.6-.5l.5-.58v-13.25c.86-.96,1.9-1.44,3.1-1.44.19,0,.36.01.5.04.14.03.31.06.5.11,1.3,1.01,2.02,2.26,2.16,3.74.19.43.31,1.97.36,4.61.05,2.69.26,4.22.65,4.61l1.37.43c.48-.05,1.02-.12,1.62-.22.6-.1,1.28-.22,2.05-.36.77-.09,1.39-.18,1.87-.25.48-.07.84-.13,1.08-.18h2.34c.46,0,1,.02,1.62.07l3.31.14c1.63.19,2.45,1.01,2.45,2.45,0,.19-.01.37-.04.54-.02.17-.06.37-.11.61-.86.86-1.49,1.32-1.87,1.37-1.1.1-2.23.24-3.38.43-1.15.19-2.57.48-4.25.86-.86.24-1.58.42-2.16.54s-1.01.2-1.3.25c-1.06,0-2.52.34-4.39,1.01l-.36.5c0,.72-.05,1.52-.14,2.41-.1.89-.14,1.62-.14,2.2,0,.14.01.41.04.79.02.38.16.96.4,1.73,0,8.35.43,13.58,1.3,15.7.67.67,1.2,1.07,1.58,1.19.38.12.7.18.94.18.58,0,1.15-.07,1.73-.22l.86-.22c.67-.14,1.21-.29,1.62-.43.41-.14.79-.35,1.15-.61.36-.26.72-.65,1.08-1.15.36-.5.83-1.19,1.4-2.05v-.22c0-.14.02-.37.07-.68.05-.31.11-.64.18-.97.07-.33.14-.65.22-.94s.13-.5.18-.65c.53-1.44,1.44-2.16,2.74-2.16h.58c.48,0,.86.14,1.15.43s.58.86.86,1.73l.36,1.22c-.34,2.35-.7,3.82-1.08,4.39-.91,1.87-1.63,3.19-2.16,3.96-.43.58-1,1.12-1.69,1.62-.7.5-1.45.95-2.27,1.33-.82.38-1.64.73-2.48,1.04-.84.31-1.6.56-2.27.76-.05,0-.23.06-.54.18-.31.12-.68.25-1.12.4-.43.14-.85.28-1.26.4-.41.12-.73.18-.97.18Z"/><path d="M383.72,60.84c-1.06,0-1.92-.19-2.59-.58-1.39-1.49-2.23-3.18-2.52-5.08-.29-1.9-.43-3.83-.43-5.8-.05-.77-.07-1.37-.07-1.8v-.94c.05-1.39.11-3.05.18-4.97.07-1.92.18-4.1.32-6.55s.26-4.51.36-6.19c.1-1.68.17-3.05.22-4.1v-1.15c0-1.2.04-2.57.11-4.1.07-1.54.16-3.26.25-5.18.1-1.92.17-3.65.22-5.18.05-1.54.07-2.9.07-4.1v-1.73c0-.53-.02-1.03-.07-1.51.38-1.25,1.1-1.87,2.16-1.87,1.34,0,2.45.77,3.31,2.3,0,.1.1.34.29.72.19.38.31.72.36,1.01l.29,5.18c.05.24.07.5.07.79v.94c-.1,1.49-.19,3.16-.29,5-.1,1.85-.24,3.9-.43,6.16-.29,3.79-.54,7.58-.76,11.38-.22,3.79-.32,7.58-.32,11.38,0,.34.02.86.07,1.58.05.72.1,1.46.14,2.23.05.77.1,1.5.14,2.2.05.7.1,1.19.14,1.48.1.82.26,1.8.5,2.95.24,1.15.62,2.21,1.15,3.17v.22c0,.58-.17,1.1-.5,1.58-.67.38-1.46.58-2.38.58Z"/><path d="M407.7,85.75c-.72.29-1.46.43-2.23.43-.72,0-1.34-.14-1.87-.43-.91-1.78-1.37-3.48-1.37-5.11v-.86c.53-1.1,1.27-2.8,2.23-5.08.96-2.28,2.14-5.15,3.53-8.6.24-.67.61-1.62,1.12-2.84.5-1.22,1.14-2.75,1.91-4.57,1.54-3.55,2.62-6.14,3.24-7.78-2.21,2.74-4.16,4.8-5.87,6.19-1.7,1.39-3.35,2.09-4.93,2.09-1.2,0-2.35-.48-3.46-1.44-2.16-1.06-3.94-3.79-5.33-8.21-.34-1.39-.5-2.87-.5-4.43s.1-2.94.29-4.14c.1-.58.19-1.26.29-2.05.1-.79.2-1.58.32-2.38.12-.79.23-1.57.32-2.34.1-.77.17-1.44.22-2.02.43-1.58,1.61-2.38,3.53-2.38.72,0,1.51.19,2.38.58,1.2.77,1.68,1.75,1.44,2.95-.1.38-.58,1.22-1.44,2.52-.77,2.35-1.06,5.86-.86,10.51.05,1.49.49,2.77,1.33,3.85.84,1.08,1.76,1.81,2.77,2.2,1.1-.1,2.08-.48,2.92-1.15.84-.67,1.6-1.42,2.27-2.23.14-.14.36-.41.65-.79.29-.38.6-.79.94-1.22.33-.43.65-.84.94-1.22.29-.38.48-.65.58-.79.82-1.39,1.9-3.05,3.24-4.97,1.39-1.97,2.26-3.5,2.59-4.61.14-.72.34-1.49.58-2.3.24-.82.65-1.42,1.22-1.8,1.1-.62,2.26-.94,3.46-.94,1.34,0,2.47.46,3.38,1.37,1.01,1.49.55,3.62-1.37,6.41l-4.54,8.21c-.1.14-.22.35-.36.61-.14.26-.29.55-.43.86-.14.31-.28.59-.4.83-.12.24-.18.38-.18.43-.1.24-.28.77-.54,1.58-.26.82-.64,1.9-1.12,3.24-.91,2.74-1.42,4.32-1.51,4.75-.29.82-.68,1.93-1.19,3.35s-1.14,3.18-1.91,5.29c-.77,2.11-1.46,3.98-2.09,5.62-.62,1.63-1.18,3.07-1.66,4.32-.19.38-.34.71-.43.97-.1.26-.14.52-.14.76-.05.24-.12.73-.22,1.48-.1.74-.22,1.59-.36,2.56-.05,1.3-.5,2.21-1.37,2.74Z"/><path d="M438.8,62.14c-1.2.05-2.42-.29-3.67-1.01-1.1-.67-1.58-1.85-1.44-3.53.05-.96.12-1.74.22-2.34.1-.6.19-1.04.29-1.33.86-.91,2.23-1.97,4.1-3.17,2.59-.19,4.27.26,5.04,1.37.29.67.56,1.3.83,1.87.26.58.44,1.27.54,2.09.29,1.54-.48,3.07-2.3,4.61-1.39.96-2.59,1.44-3.6,1.44Z"/></g></svg>