<?xml version="1.0" encoding="UTF-8"?><svg id="b" xmlns="http://www.w3.org/2000/svg" width="385.91" height="71.21" viewBox="0 0 385.91 71.21"><g id="c"><path d="M57.17,6.48h4.18c1.87,0,3.67-.02,5.4-.07,1.73-.05,3.22-.1,4.46-.14l-.36,1.44c-1.63.05-2.9.23-3.82.54-.91.31-1.62.89-2.12,1.73s-1,2.15-1.48,3.92l-9.5,35.71c-.43,1.73-.61,3.02-.54,3.89.07.86.49,1.44,1.26,1.73.77.29,1.94.48,3.53.58l-.29,1.44c-1.25-.1-2.73-.16-4.43-.18-1.7-.02-3.49-.04-5.36-.04-2.02,0-3.92.01-5.72.04s-3.25.08-4.36.18l.29-1.44c1.68-.09,2.96-.29,3.85-.58.89-.29,1.6-.86,2.12-1.73.53-.86,1.01-2.16,1.44-3.89l10.44-38.81-29.88,46.8h-1.58l-5.18-46.3-9.86,37.3c-.38,1.63-.56,2.98-.54,4.03.02,1.06.48,1.83,1.37,2.3.89.48,2.29.77,4.21.86l-.36,1.44c-.53-.05-1.24-.08-2.12-.11-.89-.02-1.8-.05-2.74-.07s-1.81-.04-2.63-.04c-1.25,0-2.5.01-3.74.04s-2.28.08-3.1.18l.36-1.44c1.68-.09,2.99-.38,3.92-.86.94-.48,1.69-1.25,2.27-2.3.58-1.05,1.06-2.4,1.44-4.03L17.28,13.9c.48-1.78.67-3.08.58-3.92-.1-.84-.52-1.42-1.26-1.73-.75-.31-1.93-.49-3.56-.54l.36-1.44c.91.05,2.03.1,3.35.14,1.32.05,2.72.07,4.21.07,1.15,0,2.3-.02,3.46-.07,1.15-.05,2.14-.1,2.95-.14l4.03,40.75L57.17,6.48Z"/><path d="M66.1,46.73c0-2.11.29-4.42.86-6.91.58-2.5,1.46-4.97,2.66-7.42,1.2-2.45,2.65-4.67,4.36-6.66,1.7-1.99,3.72-3.59,6.05-4.79,2.33-1.2,4.91-1.8,7.74-1.8,3.22,0,5.76.95,7.63,2.84,1.87,1.9,2.81,4.79,2.81,8.68,0,2.11-.29,4.42-.86,6.91-.58,2.5-1.46,4.97-2.66,7.42-1.2,2.45-2.65,4.67-4.36,6.66-1.7,1.99-3.72,3.59-6.05,4.79-2.33,1.2-4.91,1.8-7.74,1.8-3.22,0-5.76-.96-7.63-2.88s-2.81-4.8-2.81-8.64ZM87.34,20.59c-1.39,0-2.76.62-4.1,1.87-1.34,1.25-2.6,2.94-3.78,5.08-1.18,2.14-2.22,4.53-3.13,7.16-.91,2.64-1.62,5.38-2.12,8.21-.5,2.83-.76,5.52-.76,8.06,0,2.02.3,3.49.9,4.43.6.94,1.48,1.4,2.63,1.4,1.39,0,2.76-.62,4.1-1.87,1.34-1.25,2.62-2.93,3.82-5.04,1.2-2.11,2.24-4.48,3.13-7.09.89-2.62,1.58-5.34,2.09-8.17.5-2.83.76-5.57.76-8.21,0-2.11-.29-3.61-.86-4.5-.58-.89-1.46-1.33-2.66-1.33Z"/><path d="M134.93,31.18c-1.54-.77-2.93-1.87-4.18-3.31-1.25-1.44-1.82-3.17-1.73-5.18.1-1.25.52-2.16,1.26-2.74.74-.58,1.55-.86,2.41-.86,1.73,0,2.93.89,3.6,2.66.67,1.78.89,4.08.65,6.91-.29,2.78-.82,5.58-1.58,8.39-.77,2.81-1.79,5.48-3.06,8.03-1.27,2.54-2.81,4.81-4.61,6.8-1.8,1.99-3.84,3.55-6.12,4.68-2.28,1.13-4.81,1.69-7.6,1.69-2.35,0-4.18-.44-5.47-1.33s-2.21-2.02-2.74-3.38c-.53-1.37-.75-2.77-.65-4.21.14-2.78.98-5.71,2.52-8.78,1.54-3.07,3.59-6.19,6.16-9.36,2.57-3.17,5.53-6.24,8.89-9.22-.91.24-1.82.64-2.74,1.19-.91.55-1.78,1.12-2.59,1.69-.82.58-1.61,1.07-2.38,1.48-.77.41-1.51.61-2.23.61-.91,0-1.68-.28-2.3-.83-.62-.55-1.32-.83-2.09-.83s-1.38.3-1.84.9c-.46.6-.95,1.67-1.48,3.2l-.72,2.45h-1.37l1.58-5.26c.82-2.93,1.84-4.9,3.06-5.9,1.22-1.01,2.46-1.51,3.71-1.51.91,0,1.68.23,2.3.68.62.46,1.27.9,1.94,1.33.67.43,1.51.65,2.52.65s2.08-.16,3.06-.47c.98-.31,1.91-.83,2.77-1.55l.72-1.37,1.51.72c-1.87,2.4-3.54,4.82-5,7.27-1.46,2.45-2.72,4.91-3.78,7.38-1.06,2.47-1.9,4.92-2.52,7.34-.62,2.42-1.03,4.84-1.22,7.24-.19,2.54,0,4.38.58,5.51s1.42,1.69,2.52,1.69c2.11,0,4.07-.55,5.87-1.66,1.8-1.1,3.42-2.56,4.86-4.36s2.69-3.79,3.74-5.98c1.06-2.18,1.9-4.36,2.52-6.52.62-2.16,1.03-4.13,1.22-5.9Z"/><path d="M146.3,41.11c2.45-.86,4.69-1.75,6.73-2.66,2.04-.91,3.71-1.9,5-2.95,1.78-1.49,3.18-3.25,4.21-5.29,1.03-2.04,1.55-4.28,1.55-6.73,0-1.25-.1-2.05-.29-2.41-.19-.36-.48-.54-.86-.54-1.15,0-2.39.53-3.71,1.58-1.32,1.06-2.63,2.51-3.92,4.36-1.3,1.85-2.48,3.94-3.56,6.26s-1.94,4.8-2.59,7.42-.97,5.2-.97,7.74.47,4.27,1.4,5.33c.94,1.06,2.17,1.58,3.71,1.58s3.34-.49,5.26-1.48c1.92-.98,3.82-2.75,5.69-5.29l1.15.58c-.96,1.58-2.21,3.12-3.74,4.61-1.54,1.49-3.28,2.7-5.22,3.64-1.94.94-4.04,1.4-6.3,1.4-1.97,0-3.72-.38-5.26-1.15-1.54-.77-2.73-1.91-3.56-3.42-.84-1.51-1.26-3.37-1.26-5.58s.4-4.62,1.19-7.24,1.92-5.2,3.38-7.74c1.46-2.54,3.2-4.88,5.22-7.02s4.27-3.83,6.77-5.08c2.5-1.25,5.14-1.87,7.92-1.87,1.73,0,3.17.42,4.32,1.26,1.15.84,1.73,2.1,1.73,3.78,0,1.92-.54,3.71-1.62,5.36-1.08,1.66-2.53,3.16-4.36,4.5-1.82,1.34-3.81,2.54-5.94,3.6-2.14,1.06-4.27,1.97-6.41,2.74-2.14.77-4.04,1.39-5.72,1.87l.07-1.15Z"/><path d="M204.91,41.04l2.3-.07c-1.78.91-3.38,1.74-4.82,2.48-1.44.75-2.59,1.44-3.46,2.09-.86.65-1.3,1.26-1.3,1.84,0,.48.32.9.97,1.26.65.36,1.64.73,2.99,1.12l5.54,1.58c1.49.38,2.84.85,4.07,1.4,1.22.55,2.21,1.25,2.95,2.09.74.84,1.12,1.93,1.12,3.28s-.46,2.84-1.37,4.36c-.91,1.51-2.26,2.93-4.03,4.25-1.78,1.32-3.98,2.4-6.62,3.24-2.64.84-5.69,1.26-9.14,1.26-2.5,0-4.64-.23-6.44-.68-1.8-.46-3.17-1.09-4.1-1.91-.94-.82-1.4-1.78-1.4-2.88,0-.82.28-1.63.83-2.45.55-.82,1.32-1.57,2.3-2.27.98-.7,2.16-1.34,3.53-1.94,1.37-.6,2.87-1.07,4.5-1.4l.43,1.08c-1.73.91-2.93,1.91-3.6,2.99-.67,1.08-1.01,2.17-1.01,3.28,0,1.73.62,2.99,1.87,3.78,1.25.79,2.81,1.19,4.68,1.19,1.49,0,3.04-.24,4.64-.72,1.61-.48,3.11-1.12,4.5-1.91,1.39-.79,2.5-1.7,3.31-2.74.82-1.03,1.22-2.12,1.22-3.28,0-.77-.26-1.3-.79-1.58-.53-.29-1.32-.55-2.38-.79l-10.8-2.88c-1.15-.29-2.11-.8-2.88-1.55-.77-.74-1.15-1.72-1.15-2.92,0-1.05.42-2.11,1.26-3.17.84-1.05,2.24-2.17,4.21-3.35,1.97-1.18,4.66-2.53,8.06-4.07ZM209.01,19.15c2.93,0,5.33.64,7.2,1.91,1.87,1.27,2.81,3.35,2.81,6.23,0,2.3-.68,4.57-2.05,6.8-1.37,2.23-3.28,4.08-5.72,5.54-2.45,1.46-5.35,2.2-8.71,2.2-2.78,0-5.11-.64-6.98-1.91-1.87-1.27-2.81-3.28-2.81-6.01,0-1.39.3-2.94.9-4.64.6-1.7,1.55-3.31,2.84-4.82s2.98-2.77,5.04-3.78c2.06-1.01,4.56-1.51,7.49-1.51ZM208.44,20.45c-1.34,0-2.48.41-3.42,1.22-.94.82-1.73,1.87-2.38,3.17s-1.15,2.68-1.51,4.14c-.36,1.46-.61,2.84-.76,4.14s-.22,2.35-.22,3.17c0,1.54.3,2.63.9,3.28.6.65,1.4.97,2.41.97,1.58,0,2.89-.53,3.92-1.58,1.03-1.05,1.85-2.39,2.45-4,.6-1.61,1.02-3.25,1.26-4.93.24-1.68.36-3.17.36-4.46,0-1.54-.19-2.77-.58-3.71-.38-.94-1.2-1.4-2.45-1.4ZM214.34,22.9l-1.37-.5c.72-1.68,1.88-3.14,3.49-4.39,1.61-1.25,3.32-1.87,5.15-1.87,1.34,0,2.4.37,3.17,1.12.77.75,1.15,1.84,1.15,3.28,0,1.34-.34,2.35-1.01,3.02-.67.67-1.42,1.01-2.23,1.01-.77,0-1.5-.26-2.2-.79-.7-.53-1.12-1.37-1.26-2.52s.17-2.59.94-4.32l.79.22c-1.97.77-3.38,1.57-4.25,2.41-.86.84-1.66,1.96-2.38,3.35Z"/><path d="M229.32,41.11c2.45-.86,4.69-1.75,6.73-2.66,2.04-.91,3.71-1.9,5-2.95,1.78-1.49,3.18-3.25,4.21-5.29,1.03-2.04,1.55-4.28,1.55-6.73,0-1.25-.1-2.05-.29-2.41-.19-.36-.48-.54-.86-.54-1.15,0-2.39.53-3.71,1.58-1.32,1.06-2.63,2.51-3.92,4.36-1.3,1.85-2.48,3.94-3.56,6.26s-1.94,4.8-2.59,7.42-.97,5.2-.97,7.74.47,4.27,1.4,5.33c.94,1.06,2.17,1.58,3.71,1.58s3.34-.49,5.26-1.48c1.92-.98,3.82-2.75,5.69-5.29l1.15.58c-.96,1.58-2.21,3.12-3.74,4.61-1.54,1.49-3.28,2.7-5.22,3.64-1.94.94-4.04,1.4-6.3,1.4-1.97,0-3.72-.38-5.26-1.15-1.54-.77-2.73-1.91-3.56-3.42-.84-1.51-1.26-3.37-1.26-5.58s.4-4.62,1.19-7.24,1.92-5.2,3.38-7.74c1.46-2.54,3.2-4.88,5.22-7.02s4.27-3.83,6.77-5.08c2.5-1.25,5.14-1.87,7.92-1.87,1.73,0,3.17.42,4.32,1.26,1.15.84,1.73,2.1,1.73,3.78,0,1.92-.54,3.71-1.62,5.36-1.08,1.66-2.53,3.16-4.36,4.5-1.82,1.34-3.81,2.54-5.94,3.6-2.14,1.06-4.27,1.97-6.41,2.74-2.14.77-4.04,1.39-5.72,1.87l.07-1.15Z"/><path d="M263.59,57.24h-7.56l8.64-30.96c.19-.62.35-1.26.47-1.91.12-.65.08-1.19-.11-1.62-.19-.43-.65-.65-1.37-.65-.96,0-1.84.48-2.63,1.44-.79.96-1.64,2.74-2.56,5.33l-1.08,3.02h-1.37l1.8-5.33c1.06-2.93,2.36-4.9,3.92-5.9,1.56-1.01,3.2-1.51,4.93-1.51,1.54,0,2.66.31,3.38.94.72.62,1.16,1.43,1.33,2.41.17.98.17,2.06,0,3.24-.17,1.18-.4,2.34-.68,3.49l-7.13,28.01ZM266.54,43.2c1.73-4.61,3.4-8.46,5-11.56,1.61-3.1,3.18-5.56,4.72-7.38,1.54-1.82,3.11-3.13,4.72-3.92,1.61-.79,3.3-1.19,5.08-1.19,2.3,0,3.9.53,4.79,1.58.89,1.06,1.3,2.41,1.22,4.07-.07,1.66-.4,3.4-.97,5.22l-6.98,21.1c-.48,1.3-.65,2.32-.5,3.06s.67,1.12,1.58,1.12c.82,0,1.64-.46,2.48-1.37.84-.91,1.74-2.71,2.7-5.4l1.08-2.95h1.37l-1.8,5.26c-.67,2.02-1.52,3.55-2.56,4.61-1.03,1.06-2.11,1.79-3.24,2.2-1.13.41-2.22.61-3.28.61-1.2,0-2.21-.19-3.02-.58-.82-.38-1.44-.91-1.87-1.58-.58-.91-.79-2.08-.65-3.49s.53-3.04,1.15-4.86l6.7-20.23c.24-.72.43-1.51.58-2.38.14-.86.12-1.62-.07-2.27-.19-.65-.79-.97-1.8-.97s-2.21.53-3.46,1.58c-1.25,1.06-2.56,2.56-3.92,4.5-1.37,1.94-2.7,4.24-4,6.88s-2.54,5.51-3.74,8.6c-1.2,3.1-2.3,6.37-3.31,9.83l2.02-10.08Z"/><path d="M306,51.12c-.38,1.49-.29,2.56.29,3.2.58.65,1.34.97,2.3.97,1.06,0,2.11-.47,3.17-1.4,1.06-.94,2.06-2.75,3.02-5.44l1.01-2.88h1.37l-1.51,4.39c-1.01,3.07-2.38,5.22-4.1,6.44-1.73,1.22-3.74,1.84-6.05,1.84-2.06,0-3.64-.44-4.72-1.33s-1.72-2.13-1.91-3.74c-.19-1.61,0-3.42.58-5.44l11.02-38.45c1.44-.05,2.82-.14,4.14-.29,1.32-.14,2.53-.38,3.64-.72l-12.24,42.84ZM323.92,20.16l-.22,1.44h-23.26l.36-1.44h23.11Z"/><path d="M329.18,51.12c-.34,1.34-.42,2.38-.25,3.1.17.72.66,1.08,1.48,1.08s1.63-.48,2.45-1.44c.82-.96,1.68-2.74,2.59-5.33l1.08-2.95h1.37l-1.8,5.26c-.62,1.87-1.42,3.35-2.38,4.43-.96,1.08-1.99,1.85-3.1,2.3-1.11.46-2.26.68-3.46.68-1.58,0-2.79-.29-3.6-.86-.82-.58-1.36-1.38-1.62-2.41s-.31-2.17-.14-3.42c.17-1.25.44-2.52.83-3.82l11.59-38.52c.48-1.63.43-2.83-.14-3.6-.58-.77-2.04-1.15-4.39-1.15l.5-1.51c2.88-.05,5.44-.32,7.67-.83,2.23-.5,4.38-1.21,6.44-2.12l-15.12,51.12Z"/><path d="M346.1,67.32c2.16-1.1,4.42-2.6,6.77-4.5,2.35-1.9,4.78-4.45,7.27-7.67,2.78-3.5,5.28-7.39,7.49-11.66,2.21-4.27,3.79-8.52,4.75-12.74-.91-.53-1.84-1.16-2.77-1.91-.94-.74-1.7-1.59-2.3-2.56-.6-.96-.88-2.04-.83-3.24.1-1.25.5-2.21,1.22-2.88.72-.67,1.68-1.01,2.88-1.01,1.39,0,2.41.52,3.06,1.55.65,1.03.97,2.53.97,4.5,0,2.4-.4,4.98-1.19,7.74-.79,2.76-1.87,5.58-3.24,8.46s-2.89,5.65-4.57,8.32c-1.68,2.66-3.41,5.1-5.18,7.31-1.01,1.25-2.27,2.63-3.78,4.14-1.51,1.51-3.22,2.99-5.11,4.43-1.9,1.44-4,2.64-6.3,3.6-1.3.58-2.44.98-3.42,1.22s-1.79.36-2.41.36c-1.15,0-2.12-.29-2.92-.86s-1.19-1.39-1.19-2.45.42-1.99,1.26-2.66c.84-.67,1.84-1.01,2.99-1.01,1.25,0,2.41.35,3.49,1.04,1.08.7,2.1,1.52,3.06,2.48ZM362.37,53.86l-5.76,6.41-5.62-33.84c-.24-1.44-.5-2.44-.79-2.99-.29-.55-.75-.83-1.37-.83-.48,0-1.03.4-1.66,1.19-.62.79-1.39,2.46-2.3,5l-1.01,2.95h-1.37l1.8-5.26c1.01-2.93,2.26-4.88,3.74-5.87,1.49-.98,3.05-1.48,4.68-1.48s2.99.49,3.92,1.48c.94.98,1.6,2.82,1.98,5.51l3.74,27.72Z"/><path d="M375.98,54.36c0-1.58.6-2.98,1.8-4.18s2.57-1.8,4.1-1.8c1.25,0,2.23.37,2.95,1.12.72.75,1.08,1.69,1.08,2.84,0,1.06-.28,2.03-.83,2.92-.55.89-1.27,1.61-2.16,2.16-.89.55-1.86.83-2.92.83-1.25,0-2.23-.36-2.95-1.08s-1.08-1.66-1.08-2.81Z"/></g></svg>